<?xml version="1.0" standalone="no"?>
<!DOCTYPE svg PUBLIC "-//W3C//DTD SVG 1.1//EN" "http://www.w3.org/Graphics/SVG/1.1/DTD/svg11.dtd">
<svg width="100%" height="100%" viewBox="0 0 3076 2054" version="1.1" xmlns="http://www.w3.org/2000/svg" xmlns:xlink="http://www.w3.org/1999/xlink" xml:space="preserve" style="fill-rule:evenodd;clip-rule:evenodd;stroke-linejoin:round;stroke-miterlimit:1.41421;">
    <g id="Layer1 marginadjusted" transform="matrix(1.75969,2.53515e-17,2.51366e-17,1.65383,0.031,0)">
        <g transform="matrix(1.11764,0,0,1.16667,-116.234,-103.346)">
            <g transform="matrix(0.767483,5.19152e-17,3.27719e-17,0.648166,317.224,234.42)">
                <path d="M874.016,-225L874.016,1415" style="fill:none;stroke-width:3.01px;stroke:black;"/>
            </g>
            <g transform="matrix(1.04832,3.8777e-17,3.8777e-17,0.889996,289.496,-1726.64)">
                <path d="M1146,2305L1146,2039.58L1315,2039.58L1315,2305L1146,2305ZM1148.02,2302.57L1312.98,2302.57L1312.98,2042.01L1148.02,2042.01L1148.02,2302.57Z" style="fill:black;"/>
            </g>
            <g transform="matrix(1,0,0,1,0,35.6929)">
                <g transform="matrix(1.52929e-16,1,-0.331637,1.67183e-16,1590.74,-283.465)">
                    <path d="M874.016,-225L874.016,1415" style="fill:none;stroke-width:2.89px;stroke:black;"/>
                </g>
                <g transform="matrix(1.52929e-16,1,-0.331637,1.67183e-16,1590.74,-165.354)">
                    <path d="M874.016,-225L874.016,1415" style="fill:none;stroke-width:2.89px;stroke:black;"/>
                </g>
                <g transform="matrix(1.52929e-16,1,-0.331637,1.67183e-16,1590.74,-47.2441)">
                    <path d="M874.016,-225L874.016,1415" style="fill:none;stroke-width:2.89px;stroke:black;"/>
                </g>
                <g transform="matrix(1.52929e-16,1,-0.331637,1.67183e-16,1590.74,70.8661)">
                    <path d="M874.016,-225L874.016,1415" style="fill:none;stroke-width:2.89px;stroke:black;"/>
                </g>
            </g>
        </g>
        <g transform="matrix(-8.46517e-17,-0.618558,0.581346,-1.08383e-16,428.964,1777.83)">
            <path d="M879.627,985.162L879.627,1025.76L896.099,1025.76C908.395,1025.76 917.269,1017.18 917.269,1005.46C917.269,993.688 908.453,985.162 896.273,985.162L879.627,985.162ZM886.471,991.31L896.157,991.31C904.161,991.31 910.367,997.226 910.367,1005.52C910.367,1013.76 904.335,1019.61 896.447,1019.61L886.471,1019.61L886.471,991.31Z" style="fill:black;fill-rule:nonzero;"/>
            <path d="M950.329,1025.76L958.101,1025.76L948.995,1012.19C954.389,1010.1 957.405,1005.52 957.405,999.024C957.405,990.208 951.431,985.162 941.049,985.162L924.577,985.162L924.577,1025.76L931.421,1025.76L931.421,1013.52L941.049,1013.52C941.687,1013.52 942.325,1013.52 942.905,1013.47L950.329,1025.76ZM931.421,1007.38L931.421,991.31L941.049,991.31C947.313,991.31 950.909,993.862 950.909,999.198C950.909,1004.71 947.313,1007.38 941.049,1007.38L931.421,1007.38Z" style="fill:black;fill-rule:nonzero;"/>
            <path d="M975.327,994.616C969.411,994.616 963.959,997.284 963.959,1003.55C963.901,1014.68 980.141,1011.15 980.141,1017.47C980.141,1019.79 977.937,1020.77 975.095,1020.77C971.731,1020.77 967.439,1019.32 964.771,1016.95L962.393,1021.7C965.467,1024.49 970.281,1025.99 974.805,1025.99C981.011,1025.99 986.637,1023.15 986.637,1016.83C986.695,1005.64 970.281,1008.71 970.281,1003.03C970.281,1000.82 972.195,999.952 974.805,999.952C977.531,999.952 980.953,1001 983.679,1002.68L986.115,997.748C983.331,995.776 979.213,994.616 975.327,994.616Z" style="fill:black;fill-rule:nonzero;"/>
            <path d="M1017.55,994.616C1011.63,994.616 1006.18,997.284 1006.18,1003.55C1006.12,1014.68 1022.37,1011.15 1022.37,1017.47C1022.37,1019.79 1020.16,1020.77 1017.32,1020.77C1013.96,1020.77 1009.66,1019.32 1007,1016.95L1004.62,1021.7C1007.69,1024.49 1012.5,1025.99 1017.03,1025.99C1023.24,1025.99 1028.86,1023.15 1028.86,1016.83C1028.92,1005.64 1012.5,1008.71 1012.5,1003.03C1012.5,1000.82 1014.42,999.952 1017.03,999.952C1019.75,999.952 1023.18,1001 1025.9,1002.68L1028.34,997.748C1025.56,995.776 1021.44,994.616 1017.55,994.616Z" style="fill:black;fill-rule:nonzero;"/>
            <path d="M1048.29,994.674C1039.13,994.732 1032.69,1001.05 1032.69,1010.39C1032.69,1019.67 1038.95,1025.99 1048.46,1025.99C1053.8,1025.99 1058.21,1024.08 1061.22,1020.77L1057.69,1017C1055.42,1019.32 1052.35,1020.6 1048.99,1020.6C1044.12,1020.6 1040.46,1017.64 1039.42,1012.89L1062.73,1012.89C1063.55,1001.75 1059.14,994.674 1048.29,994.674ZM1039.3,1008.01C1040.06,1003.08 1043.48,1000.01 1048.35,1000.01C1053.39,1000.01 1056.7,1003.03 1056.93,1008.01L1039.3,1008.01Z" style="fill:black;fill-rule:nonzero;"/>
            <path d="M1087.73,994.674C1082.51,994.674 1078.57,996.53 1076.36,1000.82L1076.36,994.906L1069.69,994.906L1069.69,1025.76L1076.36,1025.76L1076.36,1009.35C1076.83,1004.53 1080.02,1001 1085.12,1000.94C1089.76,1000.94 1092.55,1003.78 1092.55,1008.42L1092.55,1025.76L1099.21,1025.76L1099.21,1006.56C1099.21,999.198 1094.92,994.674 1087.73,994.674Z" style="fill:black;fill-rule:nonzero;"/>
            <path d="M1137.55,982.726L1130.88,982.726L1130.88,1000.24C1128.62,996.646 1124.91,994.616 1119.92,994.616C1111.22,994.616 1105.25,1000.94 1105.25,1010.22C1105.25,1019.61 1111.16,1026.05 1120.04,1026.05C1124.97,1026.05 1128.68,1024.08 1130.88,1020.48L1130.88,1025.76L1137.55,1025.76L1137.55,982.726ZM1121.43,1020.48C1115.8,1020.48 1111.98,1016.31 1111.92,1010.45C1111.98,1004.53 1115.86,1000.3 1121.43,1000.3C1127,1000.3 1130.88,1004.48 1130.88,1010.45C1130.88,1016.31 1127,1020.48 1121.43,1020.48Z" style="fill:black;fill-rule:nonzero;"/>
            <path d="M1160.4,994.674C1151.24,994.732 1144.8,1001.05 1144.8,1010.39C1144.8,1019.67 1151.07,1025.99 1160.58,1025.99C1165.91,1025.99 1170.32,1024.08 1173.34,1020.77L1169.8,1017C1167.54,1019.32 1164.46,1020.6 1161.1,1020.6C1156.23,1020.6 1152.58,1017.64 1151.53,1012.89L1174.85,1012.89C1175.66,1001.75 1171.25,994.674 1160.4,994.674ZM1151.41,1008.01C1152.17,1003.08 1155.59,1000.01 1160.46,1000.01C1165.51,1000.01 1168.82,1003.03 1169.05,1008.01L1151.41,1008.01Z" style="fill:black;fill-rule:nonzero;"/>
            <path d="M1199.56,994.674C1194.74,994.674 1191.03,996.646 1188.77,1000.24L1188.77,994.906L1182.1,994.906L1182.1,1037.01L1188.77,1037.01L1188.77,1020.43C1191.03,1024.02 1194.74,1025.99 1199.67,1025.99C1208.49,1025.99 1214.29,1019.67 1214.29,1010.45C1214.29,1001.05 1208.31,994.674 1199.56,994.674ZM1198.16,1020.31C1192.65,1020.31 1188.77,1016.19 1188.77,1010.22C1188.77,1004.42 1192.65,1000.24 1198.16,1000.24C1203.67,1000.24 1207.56,1004.48 1207.56,1010.22C1207.56,1016.13 1203.67,1020.31 1198.16,1020.31Z" style="fill:black;fill-rule:nonzero;"/>
            <rect x="1221.54" y="982.726" width="6.67" height="43.036" style="fill:black;fill-rule:nonzero;"/>
            <path d="M1256.86,1025.76L1263.41,1025.76L1263.36,1005.52C1263.3,998.734 1258.83,994.674 1250.88,994.674C1245.03,994.674 1241.89,996.008 1237.6,998.56L1240.33,1003.2C1243.4,1001.11 1246.48,1000.07 1249.43,1000.07C1254.31,1000.07 1256.8,1002.39 1256.8,1006.27L1256.8,1007.2L1247.46,1007.2C1240.04,1007.26 1235.81,1010.86 1235.81,1016.48C1235.81,1021.93 1239.98,1026.05 1246.65,1026.05C1251.12,1026.05 1254.65,1024.72 1256.86,1021.99L1256.86,1025.76ZM1248.04,1020.77C1244.33,1020.77 1242.07,1018.98 1242.07,1016.19C1242.07,1013.23 1244.1,1012.07 1248.45,1012.07L1256.8,1012.07L1256.8,1014.92C1256.45,1018.28 1252.8,1020.77 1248.04,1020.77Z" style="fill:black;fill-rule:nonzero;"/>
            <path d="M1290.38,994.674C1285.16,994.674 1281.22,996.53 1279.02,1000.82L1279.02,994.906L1272.35,994.906L1272.35,1025.76L1279.02,1025.76L1279.02,1009.35C1279.48,1004.53 1282.67,1001 1287.77,1000.94C1292.41,1000.94 1295.2,1003.78 1295.2,1008.42L1295.2,1025.76L1301.87,1025.76L1301.87,1006.56C1301.87,999.198 1297.58,994.674 1290.38,994.674Z" style="fill:black;fill-rule:nonzero;"/>
            <path d="M1343.74,985.8C1332.66,985.8 1324.08,994.848 1324.08,1005.58C1324.08,1016.31 1332.61,1025.24 1343.63,1025.24C1354.7,1025.24 1363.35,1016.19 1363.35,1005.46C1363.35,994.674 1354.76,985.8 1343.74,985.8ZM1343.74,988.468C1353.43,988.468 1360.91,996.124 1360.91,1005.46C1360.91,1014.8 1353.37,1022.57 1343.63,1022.57C1333.94,1022.57 1326.58,1014.92 1326.58,1005.58C1326.58,996.24 1334,988.468 1343.74,988.468ZM1344.03,995.37C1338.12,995.37 1333.42,999.836 1333.42,1005.52C1333.42,1011.26 1338.06,1015.79 1343.92,1015.79C1346.76,1015.79 1349.54,1014.57 1351.57,1012.6L1350.01,1010.91C1348.38,1012.36 1346.18,1013.29 1344.03,1013.29C1339.57,1013.29 1335.97,1009.81 1335.97,1005.46C1335.97,1001.23 1339.57,997.806 1344.03,997.806C1346.3,997.806 1348.38,998.734 1350.01,1000.24L1351.57,998.386C1349.6,996.53 1346.82,995.37 1344.03,995.37Z" style="fill:black;fill-rule:nonzero;"/>
            <path d="M1387.71,985.162L1387.71,1025.76L1403.95,1025.76C1415.89,1025.76 1425,1017 1425,1005.46C1425,993.92 1415.95,985.162 1404.12,985.162L1387.71,985.162ZM1392.35,989.628L1404.01,989.628C1413.11,989.628 1420.3,996.414 1420.3,1005.52C1420.3,1014.57 1413.23,1021.35 1404.18,1021.35L1392.35,1021.35L1392.35,989.628Z" style="fill:black;fill-rule:nonzero;"/>
            <path d="M1460.03,1025.76L1465.31,1025.76L1455.8,1011.96C1461.66,1010.04 1464.9,1005.52 1464.9,998.792C1464.9,990.15 1459.05,985.162 1448.9,985.162L1433.47,985.162L1433.47,1025.76L1438.11,1025.76L1438.11,1012.94L1448.9,1012.94C1449.83,1012.94 1450.75,1012.89 1451.62,1012.83L1460.03,1025.76ZM1438.11,1008.48L1438.11,989.628L1448.9,989.628C1456.26,989.628 1460.44,992.76 1460.44,998.908C1460.44,1005.23 1456.26,1008.48 1448.9,1008.48L1438.11,1008.48Z" style="fill:black;fill-rule:nonzero;"/>
            <path d="M1475.06,1020.19C1473.43,1020.19 1472.21,1021.47 1472.21,1023.21C1472.21,1024.95 1473.43,1026.23 1475.06,1026.23C1476.62,1026.23 1477.84,1024.95 1477.84,1023.21C1477.84,1021.47 1476.62,1020.19 1475.06,1020.19Z" style="fill:black;fill-rule:nonzero;"/>
            <path d="M1507.48,1021.35L1507.48,985.162L1502.84,985.162L1502.84,1025.76L1525.28,1025.76L1525.28,1021.35L1507.48,1021.35Z" style="fill:black;fill-rule:nonzero;"/>
            <path d="M1551.15,1025.76L1555.56,1025.76L1555.5,1005.58C1555.44,999.024 1551.27,995.022 1543.73,995.022C1538.51,995.022 1535.2,996.53 1531.26,999.14L1533.17,1002.45C1536.36,1000.24 1539.49,998.966 1542.86,998.966C1548.25,998.966 1551.04,1001.63 1551.04,1006.1L1551.04,1007.9L1541,1007.9C1533.81,1007.96 1529.58,1011.32 1529.58,1016.66C1529.58,1021.93 1533.63,1025.99 1539.96,1025.99C1544.83,1025.99 1548.72,1024.37 1551.15,1021.06L1551.15,1025.76ZM1540.83,1022.05C1536.54,1022.05 1533.81,1019.85 1533.81,1016.48C1533.81,1013.12 1536.48,1011.55 1541.58,1011.55L1551.09,1011.55L1551.09,1015.21C1549.93,1019.44 1545.99,1022.05 1540.83,1022.05Z" style="fill:black;fill-rule:nonzero;"/>
            <path d="M1575.92,1025.76L1587.92,995.196L1583.34,995.196L1573.65,1021.06L1563.91,995.196L1559.1,995.196L1571.22,1025.76L1575.92,1025.76Z" style="fill:black;fill-rule:nonzero;"/>
            <path d="M1637.22,982.726L1632.7,982.726L1632.7,1001.81C1630.44,997.458 1626.2,994.964 1620.75,994.964C1612.11,994.964 1606.08,1001.29 1606.08,1010.45C1606.08,1019.56 1612.11,1025.99 1620.81,1025.99C1626.26,1025.99 1630.44,1023.5 1632.7,1019.21L1632.7,1025.76L1637.22,1025.76L1637.22,982.726ZM1621.68,1021.93C1615.18,1021.93 1610.6,1017.18 1610.6,1010.57C1610.6,1003.9 1615.18,999.082 1621.68,999.082C1628.12,999.082 1632.7,1003.9 1632.7,1010.57C1632.7,1017.18 1628.12,1021.93 1621.68,1021.93Z" style="fill:black;fill-rule:nonzero;"/>
            <path d="M1650.74,983.306C1649.06,983.306 1647.78,984.64 1647.78,986.438C1647.78,988.236 1649.06,989.57 1650.74,989.57C1652.42,989.57 1653.69,988.236 1653.69,986.438C1653.69,984.64 1652.42,983.306 1650.74,983.306ZM1653,1025.76L1653,995.196L1648.53,995.196L1648.53,1025.76L1653,1025.76Z" style="fill:black;fill-rule:nonzero;"/>
            <path d="M1678.52,1020.02C1676.84,1021.06 1675.21,1021.59 1673.65,1021.59C1671.04,1021.59 1669.59,1020.19 1669.59,1016.48L1669.59,999.836L1679.27,999.836L1679.27,996.124L1669.59,996.182L1669.59,988.12L1665.12,988.12L1665.12,996.182L1660.71,996.182L1660.71,999.836L1665.12,999.836L1665.12,1017.29C1665.12,1023.33 1668.43,1025.99 1672.89,1025.99C1675.33,1025.94 1677.65,1025.12 1679.8,1023.67L1678.52,1020.02Z" style="fill:black;fill-rule:nonzero;"/>
            <path d="M1714.6,995.08C1705.72,995.08 1699.46,1001.4 1699.46,1010.51C1699.46,1019.61 1705.66,1025.94 1714.65,1025.94C1719.76,1025.94 1724.05,1024.08 1726.95,1020.83L1724.45,1018.16C1722.08,1020.66 1718.77,1021.99 1715,1021.99C1709.09,1021.99 1704.74,1018.22 1703.92,1012.25L1728.86,1012.25C1729.33,1001.87 1724.45,995.022 1714.6,995.08ZM1703.92,1008.54C1704.62,1002.74 1708.8,998.966 1714.6,998.966C1720.57,998.966 1724.51,1002.68 1724.8,1008.54L1703.92,1008.54Z" style="fill:black;fill-rule:nonzero;"/>
            <path d="M1763.26,995.196L1758.73,995.196L1758.73,1001.4C1756.53,997.342 1752.59,995.022 1747.37,995.022C1739.19,995.08 1733.56,1001.11 1733.56,1009.64C1733.56,1018.34 1739.25,1024.43 1747.48,1024.43C1752.64,1024.43 1756.59,1022.11 1758.73,1018.05L1758.73,1022.69C1758.73,1029.07 1754.38,1033.13 1747.71,1033.13C1743.65,1033.07 1740.46,1031.74 1737.45,1029.24L1735.36,1032.72C1739.07,1035.51 1743.07,1037.07 1747.89,1037.13C1757.17,1037.13 1763.26,1031.5 1763.26,1022.57L1763.26,995.196ZM1748.29,1020.6C1742.14,1020.6 1737.85,1016.08 1737.8,1009.81C1737.85,1003.49 1742.14,998.966 1748.29,998.966C1754.38,998.966 1758.73,1003.43 1758.73,1009.81C1758.73,1016.08 1754.38,1020.6 1748.29,1020.6Z" style="fill:black;fill-rule:nonzero;"/>
            <path d="M1785.59,995.08C1776.71,995.08 1770.45,1001.4 1770.45,1010.51C1770.45,1019.61 1776.65,1025.94 1785.64,1025.94C1790.75,1025.94 1795.04,1024.08 1797.94,1020.83L1795.45,1018.16C1793.07,1020.66 1789.76,1021.99 1785.99,1021.99C1780.08,1021.99 1775.73,1018.22 1774.91,1012.25L1799.86,1012.25C1800.32,1001.87 1795.45,995.022 1785.59,995.08ZM1774.91,1008.54C1775.61,1002.74 1779.79,998.966 1785.59,998.966C1791.56,998.966 1795.51,1002.68 1795.8,1008.54L1774.91,1008.54Z" style="fill:black;fill-rule:nonzero;"/>
            <path d="M1822.13,1020.02C1820.44,1021.06 1818.82,1021.59 1817.26,1021.59C1814.64,1021.59 1813.19,1020.19 1813.19,1016.48L1813.19,999.836L1822.88,999.836L1822.88,996.124L1813.19,996.182L1813.19,988.12L1808.73,988.12L1808.73,996.182L1804.32,996.182L1804.32,999.836L1808.73,999.836L1808.73,1017.29C1808.73,1023.33 1812.04,1025.99 1816.5,1025.99C1818.94,1025.94 1821.26,1025.12 1823.4,1023.67L1822.13,1020.02Z" style="fill:black;fill-rule:nonzero;"/>
            <path d="M1862.73,995.022C1857.39,995.022 1853.22,997.516 1850.95,1001.81L1850.95,995.196L1846.43,995.196L1846.43,1037.01L1850.95,1037.01L1850.95,1019.21C1853.22,1023.44 1857.39,1025.94 1862.84,1025.94C1871.49,1025.94 1877.4,1019.61 1877.4,1010.57C1877.4,1001.4 1871.37,995.022 1862.73,995.022ZM1861.91,1021.82C1855.48,1021.82 1850.95,1017.12 1850.95,1010.45C1850.95,1003.84 1855.48,999.082 1861.91,999.082C1868.3,999.082 1872.82,1003.9 1872.82,1010.45C1872.82,1017.06 1868.3,1021.82 1861.91,1021.82Z" style="fill:black;fill-rule:nonzero;"/>
            <path d="M1897.76,995.08C1888.71,995.08 1882.27,1001.34 1882.27,1010.45C1882.27,1019.61 1888.71,1025.94 1897.76,1025.94C1906.81,1025.94 1913.25,1019.61 1913.25,1010.45C1913.25,1001.34 1906.81,995.08 1897.76,995.08ZM1897.76,999.198C1904.14,999.198 1908.72,1003.84 1908.72,1010.51C1908.72,1017.24 1904.14,1021.88 1897.76,1021.88C1891.38,1021.88 1886.8,1017.24 1886.8,1010.51C1886.8,1003.84 1891.38,999.198 1897.76,999.198Z" style="fill:black;fill-rule:nonzero;"/>
            <path d="M1929.31,995.022C1923.74,995.022 1918.7,997.458 1918.7,1003.32C1918.64,1014.16 1935.75,1010.39 1935.58,1017.76C1935.52,1020.77 1932.62,1022.11 1929.02,1022.11C1925.42,1022.11 1921.48,1020.66 1918.87,1018.22L1917.13,1021.64C1920.03,1024.43 1924.5,1025.94 1928.85,1025.94C1934.7,1025.94 1940.04,1023.27 1940.04,1017.24C1940.04,1006.27 1922.99,1009.75 1922.99,1002.97C1922.99,1000.13 1925.6,998.908 1929.02,998.908C1931.86,998.908 1934.94,999.894 1937.32,1001.4L1939.06,997.806C1936.5,996.066 1932.97,995.022 1929.31,995.022Z" style="fill:black;fill-rule:nonzero;"/>
            <path d="M1961.97,1020.02C1960.28,1021.06 1958.66,1021.59 1957.09,1021.59C1954.48,1021.59 1953.03,1020.19 1953.03,1016.48L1953.03,999.836L1962.72,999.836L1962.72,996.124L1953.03,996.182L1953.03,988.12L1948.57,988.12L1948.57,996.182L1944.16,996.182L1944.16,999.836L1948.57,999.836L1948.57,1017.29C1948.57,1023.33 1951.87,1025.99 1956.34,1025.99C1958.78,1025.94 1961.1,1025.12 1963.24,1023.67L1961.97,1020.02Z" style="fill:black;fill-rule:nonzero;"/>
            <path d="M1981.34,1010.33L1991.78,1025.76L1997.17,1025.76L1984.53,1007.03L1995.95,995.196L1990.62,995.196L1974.9,1010.86L1974.9,982.726L1970.38,982.726L1970.38,1025.76L1974.9,1025.76L1974.9,1017L1981.34,1010.33Z" style="fill:black;fill-rule:nonzero;"/>
            <path d="M2014.4,995.08C2005.35,995.08 1998.91,1001.34 1998.91,1010.45C1998.91,1019.61 2005.35,1025.94 2014.4,1025.94C2023.44,1025.94 2029.88,1019.61 2029.88,1010.45C2029.88,1001.34 2023.44,995.08 2014.4,995.08ZM2014.4,999.198C2020.78,999.198 2025.36,1003.84 2025.36,1010.51C2025.36,1017.24 2020.78,1021.88 2014.4,1021.88C2008.02,1021.88 2003.43,1017.24 2003.43,1010.51C2003.43,1003.84 2008.02,999.198 2014.4,999.198Z" style="fill:black;fill-rule:nonzero;"/>
            <path d="M2042.35,995.196L2037.83,995.196L2037.83,1025.76L2042.35,1025.76L2042.35,1009.52C2042.88,1003.49 2046.88,999.488 2053.32,999.604L2053.32,995.022C2048.15,995.08 2044.38,997.516 2042.35,1001.98L2042.35,995.196Z" style="fill:black;fill-rule:nonzero;"/>
            <path d="M2073.91,1020.02C2072.22,1021.06 2070.6,1021.59 2069.03,1021.59C2066.42,1021.59 2064.97,1020.19 2064.97,1016.48L2064.97,999.836L2074.66,999.836L2074.66,996.124L2064.97,996.182L2064.97,988.12L2060.51,988.12L2060.51,996.182L2056.1,996.182L2056.1,999.836L2060.51,999.836L2060.51,1017.29C2060.51,1023.33 2063.81,1025.99 2068.28,1025.99C2070.72,1025.94 2073.03,1025.12 2075.18,1023.67L2073.91,1020.02Z" style="fill:black;fill-rule:nonzero;"/>
            <path d="M2114.51,995.022C2109.17,995.022 2104.99,997.516 2102.73,1001.81L2102.73,995.196L2098.21,995.196L2098.21,1037.01L2102.73,1037.01L2102.73,1019.21C2104.99,1023.44 2109.17,1025.94 2114.62,1025.94C2123.26,1025.94 2129.18,1019.61 2129.18,1010.57C2129.18,1001.4 2123.15,995.022 2114.51,995.022ZM2113.69,1021.82C2107.26,1021.82 2102.73,1017.12 2102.73,1010.45C2102.73,1003.84 2107.26,999.082 2113.69,999.082C2120.07,999.082 2124.6,1003.9 2124.6,1010.45C2124.6,1017.06 2120.07,1021.82 2113.69,1021.82Z" style="fill:black;fill-rule:nonzero;"/>
            <path d="M2148.09,992.992C2151.74,992.992 2154.82,989.976 2154.82,986.38C2154.82,982.842 2151.74,979.826 2148.09,979.826C2144.43,979.826 2141.42,982.842 2141.42,986.38C2141.42,989.976 2144.43,992.992 2148.09,992.992ZM2148.09,982.204C2150.52,982.204 2152.61,984.118 2152.61,986.38C2152.61,988.7 2150.52,990.614 2148.09,990.614C2145.65,990.614 2143.62,988.7 2143.62,986.38C2143.62,984.118 2145.65,982.204 2148.09,982.204ZM2156.09,1025.76L2160.5,1025.76L2160.44,1005.58C2160.38,999.024 2156.21,995.022 2148.67,995.022C2143.45,995.022 2140.14,996.53 2136.2,999.14L2138.11,1002.45C2141.3,1000.24 2144.43,998.966 2147.8,998.966C2153.19,998.966 2155.97,1001.63 2155.97,1006.1L2155.97,1007.9L2145.94,1007.9C2138.75,1007.96 2134.51,1011.32 2134.51,1016.66C2134.51,1021.93 2138.57,1025.99 2144.9,1025.99C2149.77,1025.99 2153.66,1024.37 2156.09,1021.06L2156.09,1025.76ZM2145.77,1022.05C2141.47,1022.05 2138.75,1019.85 2138.75,1016.48C2138.75,1013.12 2141.42,1011.55 2146.52,1011.55L2156.03,1011.55L2156.03,1015.21C2154.87,1019.44 2150.93,1022.05 2145.77,1022.05Z" style="fill:black;fill-rule:nonzero;"/>
            <path d="M2221.8,1025.76L2233.06,994.906L2226.27,994.906L2218.38,1019.15L2210.55,994.906L2203.65,994.906L2195.88,1019.15L2187.88,994.906L2181.03,994.906L2192.4,1025.76L2199.24,1025.76L2207.07,1002.91L2214.9,1025.76L2221.8,1025.76Z" style="fill:black;fill-rule:nonzero;"/>
            <path d="M2273.6,1025.76L2284.85,994.906L2278.07,994.906L2270.18,1019.15L2262.35,994.906L2255.45,994.906L2247.67,1019.15L2239.67,994.906L2232.83,994.906L2244.19,1025.76L2251.04,1025.76L2258.87,1002.91L2266.7,1025.76L2273.6,1025.76Z" style="fill:black;fill-rule:nonzero;"/>
            <path d="M2325.39,1025.76L2336.64,994.906L2329.86,994.906L2321.97,1019.15L2314.14,994.906L2307.24,994.906L2299.47,1019.15L2291.46,994.906L2284.62,994.906L2295.99,1025.76L2302.83,1025.76L2310.66,1002.91L2318.49,1025.76L2325.39,1025.76Z" style="fill:black;fill-rule:nonzero;"/>
            <path d="M2341.46,1018.63C2339.37,1018.63 2337.8,1020.19 2337.8,1022.4C2337.8,1024.66 2339.37,1026.28 2341.46,1026.28C2343.55,1026.28 2345.11,1024.66 2345.11,1022.4C2345.11,1020.19 2343.55,1018.63 2341.46,1018.63Z" style="fill:black;fill-rule:nonzero;"/>
            <path d="M2382.12,982.726L2375.45,982.726L2375.45,1000.24C2373.18,996.646 2369.47,994.616 2364.49,994.616C2355.78,994.616 2349.81,1000.94 2349.81,1010.22C2349.81,1019.61 2355.73,1026.05 2364.6,1026.05C2369.53,1026.05 2373.24,1024.08 2375.45,1020.48L2375.45,1025.76L2382.12,1025.76L2382.12,982.726ZM2365.99,1020.48C2360.37,1020.48 2356.54,1016.31 2356.48,1010.45C2356.54,1004.53 2360.43,1000.3 2365.99,1000.3C2371.56,1000.3 2375.45,1004.48 2375.45,1010.45C2375.45,1016.31 2371.56,1020.48 2365.99,1020.48Z" style="fill:black;fill-rule:nonzero;"/>
            <path d="M2410.77,1025.76L2417.32,1025.76L2417.26,1005.52C2417.21,998.734 2412.74,994.674 2404.8,994.674C2398.94,994.674 2395.8,996.008 2391.51,998.56L2394.24,1003.2C2397.31,1001.11 2400.39,1000.07 2403.35,1000.07C2408.22,1000.07 2410.71,1002.39 2410.71,1006.27L2410.71,1007.2L2401.37,1007.2C2393.95,1007.26 2389.72,1010.86 2389.72,1016.48C2389.72,1021.93 2393.89,1026.05 2400.56,1026.05C2405.03,1026.05 2408.57,1024.72 2410.77,1021.99L2410.77,1025.76ZM2401.95,1020.77C2398.24,1020.77 2395.98,1018.98 2395.98,1016.19C2395.98,1013.23 2398.01,1012.07 2402.36,1012.07L2410.71,1012.07L2410.71,1014.92C2410.36,1018.28 2406.71,1020.77 2401.95,1020.77Z" style="fill:black;fill-rule:nonzero;"/>
            <path d="M2444.29,994.674C2439.07,994.674 2435.13,996.53 2432.93,1000.82L2432.93,994.906L2426.26,994.906L2426.26,1025.76L2432.93,1025.76L2432.93,1009.35C2433.39,1004.53 2436.58,1001 2441.68,1000.94C2446.32,1000.94 2449.11,1003.78 2449.11,1008.42L2449.11,1025.76L2455.78,1025.76L2455.78,1006.56C2455.78,999.198 2451.49,994.674 2444.29,994.674Z" style="fill:black;fill-rule:nonzero;"/>
            <path d="M2473.93,994.616C2468.01,994.616 2462.56,997.284 2462.56,1003.55C2462.51,1014.68 2478.74,1011.15 2478.74,1017.47C2478.74,1019.79 2476.54,1020.77 2473.7,1020.77C2470.34,1020.77 2466.04,1019.32 2463.38,1016.95L2461,1021.7C2464.07,1024.49 2468.89,1025.99 2473.41,1025.99C2479.62,1025.99 2485.24,1023.15 2485.24,1016.83C2485.3,1005.64 2468.89,1008.71 2468.89,1003.03C2468.89,1000.82 2470.8,999.952 2473.41,999.952C2476.14,999.952 2479.56,1001 2482.28,1002.68L2484.72,997.748C2481.93,995.776 2477.82,994.616 2473.93,994.616Z" style="fill:black;fill-rule:nonzero;"/>
            <path d="M2504.15,1011.61L2513.2,1025.76L2521.09,1025.76L2508.79,1006.85L2520.22,994.906L2512.56,994.906L2498.93,1008.71L2498.93,982.726L2492.26,982.726L2492.26,1025.76L2498.93,1025.76L2498.93,1017.12L2504.15,1011.61Z" style="fill:black;fill-rule:nonzero;"/>
            <path d="M2538.66,1011.61L2547.71,1025.76L2555.6,1025.76L2543.3,1006.85L2554.72,994.906L2547.07,994.906L2533.44,1008.71L2533.44,982.726L2526.77,982.726L2526.77,1025.76L2533.44,1025.76L2533.44,1017.12L2538.66,1011.61Z" style="fill:black;fill-rule:nonzero;"/>
            <path d="M2589,994.906L2582.33,994.906L2582.33,1010.1C2582.33,1015.5 2579.2,1019.61 2573.87,1019.73C2569.4,1019.73 2566.67,1016.89 2566.67,1012.25L2566.67,994.906L2560,994.906L2560,1014.1C2560,1021.47 2564.24,1025.99 2571.31,1025.99C2576.36,1025.94 2580.24,1024.02 2582.33,1019.73L2582.33,1025.76L2589,1025.76L2589,994.906Z" style="fill:black;fill-rule:nonzero;"/>
            <rect x="2599.15" y="982.726" width="6.67" height="43.036" style="fill:black;fill-rule:nonzero;"/>
            <path d="M2631.75,1018.69C2629.95,1019.56 2628.5,1020.02 2627.11,1020.02C2625.02,1020.02 2623.8,1019.03 2623.8,1015.84L2623.8,1001.05L2632.91,1001.05L2632.91,996.066L2623.8,996.066L2623.8,987.598L2617.19,987.598L2617.19,996.066L2612.84,996.066L2612.84,1001.05L2617.19,1001.05L2617.19,1017.06C2617.19,1023.38 2621.19,1026.05 2625.83,1026.05C2628.44,1026.05 2630.99,1025.24 2633.43,1023.79L2631.75,1018.69Z" style="fill:black;fill-rule:nonzero;"/>
            <path d="M2667.59,994.906L2660.92,994.906L2660.92,1010.1C2660.92,1015.5 2657.79,1019.61 2652.45,1019.73C2647.99,1019.73 2645.26,1016.89 2645.26,1012.25L2645.26,994.906L2638.59,994.906L2638.59,1014.1C2638.59,1021.47 2642.83,1025.99 2649.9,1025.99C2654.95,1025.94 2658.84,1024.02 2660.92,1019.73L2660.92,1025.76L2667.59,1025.76L2667.59,994.906Z" style="fill:black;fill-rule:nonzero;"/>
            <path d="M2684.12,994.906L2677.45,994.906L2677.45,1025.76L2684.12,1025.76L2684.12,1009.64C2684.64,1004.36 2688.59,1000.71 2694.8,1001.05L2694.8,994.674C2689.92,994.674 2686.21,996.878 2684.12,1001.05L2684.12,994.906Z" style="fill:black;fill-rule:nonzero;"/>
            <path d="M2717.59,1025.76L2724.14,1025.76L2724.09,1005.52C2724.03,998.734 2719.56,994.674 2711.62,994.674C2705.76,994.674 2702.62,996.008 2698.33,998.56L2701.06,1003.2C2704.13,1001.11 2707.21,1000.07 2710.16,1000.07C2715.04,1000.07 2717.53,1002.39 2717.53,1006.27L2717.53,1007.2L2708.19,1007.2C2700.77,1007.26 2696.53,1010.86 2696.53,1016.48C2696.53,1021.93 2700.71,1026.05 2707.38,1026.05C2711.85,1026.05 2715.39,1024.72 2717.59,1021.99L2717.59,1025.76ZM2708.77,1020.77C2705.06,1020.77 2702.8,1018.98 2702.8,1016.19C2702.8,1013.23 2704.83,1012.07 2709.18,1012.07L2717.53,1012.07L2717.53,1014.92C2717.18,1018.28 2713.53,1020.77 2708.77,1020.77Z" style="fill:black;fill-rule:nonzero;"/>
            <path d="M2739.74,994.906L2733.08,994.906L2733.08,1025.76L2739.74,1025.76L2739.74,1009.64C2740.27,1004.36 2744.21,1000.71 2750.42,1001.05L2750.42,994.674C2745.55,994.674 2741.83,996.878 2739.74,1001.05L2739.74,994.906Z" style="fill:black;fill-rule:nonzero;"/>
            <path d="M2771.41,1025.76L2783.24,994.906L2776.58,994.906L2768.11,1019.21L2759.52,994.906L2752.56,994.906L2764.51,1025.76L2771.41,1025.76Z" style="fill:black;fill-rule:nonzero;"/>
            <path d="M2788.06,1018.63C2785.97,1018.63 2784.41,1020.19 2784.41,1022.4C2784.41,1024.66 2785.97,1026.28 2788.06,1026.28C2790.15,1026.28 2791.71,1024.66 2791.71,1022.4C2791.71,1020.19 2790.15,1018.63 2788.06,1018.63Z" style="fill:black;fill-rule:nonzero;"/>
            <path d="M2828.72,982.726L2822.05,982.726L2822.05,1000.24C2819.78,996.646 2816.07,994.616 2811.09,994.616C2802.39,994.616 2796.41,1000.94 2796.41,1010.22C2796.41,1019.61 2802.33,1026.05 2811.2,1026.05C2816.13,1026.05 2819.84,1024.08 2822.05,1020.48L2822.05,1025.76L2828.72,1025.76L2828.72,982.726ZM2812.59,1020.48C2806.97,1020.48 2803.14,1016.31 2803.08,1010.45C2803.14,1004.53 2807.03,1000.3 2812.59,1000.3C2818.16,1000.3 2822.05,1004.48 2822.05,1010.45C2822.05,1016.31 2818.16,1020.48 2812.59,1020.48Z" style="fill:black;fill-rule:nonzero;"/>
            <path d="M2851.05,1011.61L2860.1,1025.76L2867.98,1025.76L2855.69,1006.85L2867.11,994.906L2859.46,994.906L2845.83,1008.71L2845.83,982.726L2839.16,982.726L2839.16,1025.76L2845.83,1025.76L2845.83,1017.12L2851.05,1011.61Z" style="fill:black;fill-rule:nonzero;"/>
        </g>
    </g>
</svg>
