<?xml version="1.0" standalone="no"?>
<!DOCTYPE svg PUBLIC "-//W3C//DTD SVG 1.1//EN" "http://www.w3.org/Graphics/SVG/1.1/DTD/svg11.dtd">
<svg width="100%" height="100%" viewBox="0 0 3076 2054" version="1.1" xmlns="http://www.w3.org/2000/svg" xmlns:xlink="http://www.w3.org/1999/xlink" xml:space="preserve" style="fill-rule:evenodd;clip-rule:evenodd;stroke-linejoin:round;stroke-miterlimit:1.41421;">
    <g transform="matrix(1,0,0,1,-210,-215)">
        <g id="Layer1 marginadjusted" transform="matrix(1.75969,2.53515e-17,2.51366e-17,1.65383,210.031,215)">
            <g transform="matrix(-4.97398e-16,-1.29917,1.29917,-4.97398e-16,220.206,777.918)">
                <path d="M-355.179,602.459L-355.179,620.721L-347.588,620.721C-341.822,620.721 -337.831,616.964 -337.831,611.59C-337.831,606.19 -341.77,602.459 -347.431,602.459L-355.179,602.459ZM-351.057,605.929L-347.509,605.929C-344.379,605.929 -342.031,608.251 -342.031,611.616C-342.031,614.955 -344.274,617.251 -347.327,617.251L-351.057,617.251L-351.057,605.929Z" style="fill:black;fill-rule:nonzero;"/>
                <path d="M-323.9,620.721L-319.23,620.721L-323.117,614.694C-320.9,613.651 -319.7,611.616 -319.7,608.799C-319.7,604.755 -322.413,602.459 -327.187,602.459L-335.118,602.459L-335.118,620.721L-330.996,620.721L-330.996,615.503L-326.796,615.503L-323.9,620.721ZM-330.996,612.06L-330.996,605.877L-327.187,605.877C-324.917,605.877 -323.613,606.894 -323.613,608.929C-323.613,611.016 -324.917,612.06 -327.187,612.06L-330.996,612.06Z" style="fill:black;fill-rule:nonzero;"/>
                <path d="M-311.561,606.503C-314.613,606.503 -317.091,607.99 -317.091,610.886C-317.091,615.816 -309.813,614.616 -309.813,616.86C-309.813,617.616 -310.569,617.955 -311.587,617.955C-313.126,617.955 -315.004,617.329 -316.465,616.208L-317.769,618.921C-316.178,620.199 -313.961,620.877 -311.691,620.877C-308.508,620.877 -305.978,619.364 -305.978,616.494C-305.952,611.538 -313.361,612.607 -313.361,610.494C-313.361,609.764 -312.682,609.451 -311.743,609.451C-310.569,609.451 -309.004,609.946 -307.465,610.807L-306.082,608.068C-307.647,607.077 -309.63,606.503 -311.561,606.503Z" style="fill:black;fill-rule:nonzero;"/>
                <path d="M-292.256,606.503C-295.308,606.503 -297.786,607.99 -297.786,610.886C-297.786,615.816 -290.508,614.616 -290.508,616.86C-290.508,617.616 -291.264,617.955 -292.282,617.955C-293.821,617.955 -295.699,617.329 -297.16,616.208L-298.465,618.921C-296.873,620.199 -294.656,620.877 -292.386,620.877C-289.203,620.877 -286.673,619.364 -286.673,616.494C-286.647,611.538 -294.056,612.607 -294.056,610.494C-294.056,609.764 -293.377,609.451 -292.438,609.451C-291.264,609.451 -289.699,609.946 -288.16,610.807L-286.777,608.068C-288.342,607.077 -290.325,606.503 -292.256,606.503Z" style="fill:black;fill-rule:nonzero;"/>
                <path d="M-277.96,606.555C-282.238,606.555 -285.186,609.425 -285.186,613.755C-285.186,618.008 -282.342,620.877 -277.855,620.877C-275.325,620.877 -273.264,619.964 -271.855,618.399L-273.968,616.26C-274.933,617.225 -276.186,617.747 -277.516,617.747C-279.316,617.747 -280.673,616.703 -281.142,614.929L-271.072,614.929C-270.733,609.816 -273.029,606.555 -277.96,606.555ZM-281.221,612.555C-280.908,610.703 -279.707,609.503 -277.934,609.503C-276.081,609.503 -274.881,610.703 -274.829,612.555L-281.221,612.555Z" style="fill:black;fill-rule:nonzero;"/>
                <path d="M-259.542,606.529C-261.733,606.555 -263.403,607.39 -264.394,609.138L-264.394,606.686L-268.412,606.686L-268.412,620.721L-264.394,620.721L-264.394,613.807C-264.394,611.747 -263.194,610.233 -261.185,610.207C-259.463,610.207 -258.42,611.303 -258.42,613.077L-258.42,620.721L-254.402,620.721L-254.402,611.903C-254.402,608.616 -256.411,606.529 -259.542,606.529Z" style="fill:black;fill-rule:nonzero;"/>
                <path d="M-237.08,601.364L-241.072,601.364L-241.072,608.746C-242.089,607.312 -243.628,606.529 -245.611,606.529C-249.524,606.529 -252.133,609.373 -252.133,613.651C-252.133,617.981 -249.498,620.877 -245.507,620.877C-243.576,620.877 -242.063,620.095 -241.072,618.66L-241.072,620.721L-237.08,620.721L-237.08,601.364ZM-244.567,617.642C-246.681,617.642 -248.089,616.051 -248.115,613.755C-248.089,611.486 -246.654,609.868 -244.567,609.868C-242.506,609.868 -241.072,611.46 -241.072,613.755C-241.072,616.051 -242.506,617.642 -244.567,617.642Z" style="fill:black;fill-rule:nonzero;"/>
                <path d="M-227.037,606.555C-231.315,606.555 -234.263,609.425 -234.263,613.755C-234.263,618.008 -231.419,620.877 -226.932,620.877C-224.402,620.877 -222.341,619.964 -220.932,618.399L-223.045,616.26C-224.01,617.225 -225.263,617.747 -226.593,617.747C-228.393,617.747 -229.75,616.703 -230.219,614.929L-220.149,614.929C-219.81,609.816 -222.106,606.555 -227.037,606.555ZM-230.297,612.555C-229.984,610.703 -228.784,609.503 -227.01,609.503C-225.158,609.503 -223.958,610.703 -223.906,612.555L-230.297,612.555Z" style="fill:black;fill-rule:nonzero;"/>
                <path d="M-208.906,606.555C-210.81,606.555 -212.349,607.338 -213.34,608.746L-213.34,606.686L-217.358,606.686L-217.358,625.782L-213.34,625.782L-213.34,618.686C-212.323,620.095 -210.784,620.877 -208.827,620.877C-204.888,620.877 -202.305,618.034 -202.305,613.781C-202.305,609.451 -204.966,606.555 -208.906,606.555ZM-209.845,617.538C-211.906,617.538 -213.34,615.973 -213.34,613.651C-213.34,611.381 -211.906,609.79 -209.845,609.79C-207.784,609.79 -206.375,611.407 -206.375,613.651C-206.375,615.947 -207.784,617.538 -209.845,617.538Z" style="fill:black;fill-rule:nonzero;"/>
                <rect x="-199.514" y="601.364" width="4.017" height="19.357" style="fill:black;fill-rule:nonzero;"/>
                <path d="M-183.34,620.721L-179.4,620.721L-179.427,611.564C-179.453,608.407 -181.618,606.529 -185.375,606.529C-187.827,606.529 -189.627,607.103 -191.714,608.146L-190.462,610.912C-189.001,610.103 -187.54,609.686 -186.288,609.686C-184.357,609.686 -183.366,610.546 -183.366,612.033L-183.366,612.294L-187.227,612.294C-190.67,612.32 -192.575,613.886 -192.575,616.521C-192.575,619.077 -190.749,620.903 -187.748,620.903C-185.792,620.903 -184.279,620.251 -183.34,619.077L-183.34,620.721ZM-186.627,618.034C-187.983,618.034 -188.818,617.329 -188.818,616.26C-188.818,615.138 -188.062,614.668 -186.522,614.668L-183.366,614.668L-183.366,615.921C-183.601,617.121 -184.931,618.034 -186.627,618.034Z" style="fill:black;fill-rule:nonzero;"/>
                <path d="M-167.061,606.529C-169.252,606.555 -170.922,607.39 -171.913,609.138L-171.913,606.686L-175.931,606.686L-175.931,620.721L-171.913,620.721L-171.913,613.807C-171.913,611.747 -170.713,610.233 -168.705,610.207C-166.983,610.207 -165.939,611.303 -165.939,613.077L-165.939,620.721L-161.922,620.721L-161.922,611.903C-161.922,608.616 -163.93,606.529 -167.061,606.529Z" style="fill:black;fill-rule:nonzero;"/>
                <path d="M-145.33,606.92C-149.321,606.92 -152.139,609.764 -152.139,613.86C-152.139,617.955 -149.347,620.799 -145.304,620.799C-143.008,620.799 -141.078,619.964 -139.773,618.503L-140.895,617.303C-141.965,618.425 -143.452,619.025 -145.147,619.025C-147.808,619.025 -149.765,617.329 -150.13,614.642L-138.912,614.642C-138.704,609.973 -140.895,606.894 -145.33,606.92ZM-150.13,612.973C-149.817,610.364 -147.939,608.668 -145.33,608.668C-142.643,608.668 -140.869,610.338 -140.739,612.973L-150.13,612.973Z" style="fill:black;fill-rule:nonzero;"/>
                <path d="M-133.382,606.972L-135.417,606.972L-135.417,620.721L-133.382,620.721L-133.382,613.416C-133.147,610.703 -131.347,608.903 -128.451,608.955L-128.451,606.894C-130.773,606.92 -132.469,608.016 -133.382,610.025L-133.382,606.972Z" style="fill:black;fill-rule:nonzero;"/>
                <path d="M-111.155,602.746C-116.138,602.746 -119.999,606.816 -119.999,611.642C-119.999,616.468 -116.164,620.486 -111.207,620.486C-106.225,620.486 -102.338,616.416 -102.338,611.59C-102.338,606.738 -106.198,602.746 -111.155,602.746ZM-111.155,603.946C-106.799,603.946 -103.433,607.39 -103.433,611.59C-103.433,615.79 -106.825,619.286 -111.207,619.286C-115.564,619.286 -118.877,615.842 -118.877,611.642C-118.877,607.442 -115.538,603.946 -111.155,603.946ZM-111.025,607.051C-113.686,607.051 -115.799,609.059 -115.799,611.616C-115.799,614.199 -113.712,616.234 -111.077,616.234C-109.799,616.234 -108.546,615.686 -107.633,614.799L-108.338,614.042C-109.068,614.694 -110.059,615.112 -111.025,615.112C-113.033,615.112 -114.651,613.547 -114.651,611.59C-114.651,609.686 -113.033,608.146 -111.025,608.146C-110.007,608.146 -109.068,608.564 -108.338,609.242L-107.633,608.407C-108.52,607.572 -109.772,607.051 -111.025,607.051Z" style="fill:black;fill-rule:nonzero;"/>
                <path d="M-91.381,602.459L-91.381,620.721L-84.076,620.721C-78.702,620.721 -74.606,616.781 -74.606,611.59C-74.606,606.399 -78.676,602.459 -83.998,602.459L-91.381,602.459ZM-89.294,604.468L-84.05,604.468C-79.954,604.468 -76.719,607.52 -76.719,611.616C-76.719,615.686 -79.902,618.738 -83.972,618.738L-89.294,618.738L-89.294,604.468Z" style="fill:black;fill-rule:nonzero;"/>
                <path d="M-62.554,620.721L-60.571,620.721L-60.597,611.642C-60.623,608.694 -62.502,606.894 -65.893,606.894C-68.241,606.894 -69.728,607.572 -71.502,608.746L-70.641,610.233C-69.206,609.242 -67.797,608.668 -66.284,608.668C-63.858,608.668 -62.606,609.868 -62.606,611.877L-62.606,612.686L-67.119,612.686C-70.354,612.712 -72.258,614.225 -72.258,616.625C-72.258,618.999 -70.432,620.825 -67.589,620.825C-65.397,620.825 -63.65,620.095 -62.554,618.608L-62.554,620.721ZM-67.197,619.051C-69.128,619.051 -70.354,618.06 -70.354,616.547C-70.354,615.034 -69.154,614.329 -66.858,614.329L-62.58,614.329L-62.58,615.973C-63.102,617.877 -64.876,619.051 -67.197,619.051Z" style="fill:black;fill-rule:nonzero;"/>
                <path d="M-48.675,606.894C-51.18,606.92 -53.032,607.912 -53.997,609.999L-53.997,606.972L-56.032,606.972L-56.032,620.721L-53.997,620.721L-53.997,613.338C-53.762,610.729 -52.093,608.955 -49.38,608.929C-46.953,608.929 -45.493,610.364 -45.493,612.79L-45.493,620.721L-43.458,620.721L-43.458,612.242C-43.458,608.929 -45.388,606.894 -48.675,606.894Z" style="fill:black;fill-rule:nonzero;"/>
                <path d="M-21.309,606.894C-23.944,606.92 -25.875,608.068 -26.735,610.494C-27.309,608.225 -29.083,606.894 -31.666,606.894C-34.144,606.92 -35.997,607.938 -36.91,610.077L-36.91,606.972L-38.918,606.972L-38.918,620.721L-36.91,620.721L-36.91,613.964C-36.91,611.016 -35.214,608.981 -32.397,608.903C-29.996,608.903 -28.588,610.338 -28.588,612.79L-28.588,620.721L-26.527,620.721L-26.527,613.964C-26.527,611.016 -24.883,608.981 -22.04,608.903C-19.666,608.903 -18.231,610.338 -18.231,612.79L-18.231,620.721L-16.196,620.721L-16.196,612.242C-16.196,608.929 -18.1,606.894 -21.309,606.894Z" style="fill:black;fill-rule:nonzero;"/>
                <path d="M-3.152,620.721L-1.17,620.721L-1.196,611.642C-1.222,608.694 -3.1,606.894 -6.491,606.894C-8.839,606.894 -10.326,607.572 -12.1,608.746L-11.239,610.233C-9.805,609.242 -8.396,608.668 -6.883,608.668C-4.457,608.668 -3.204,609.868 -3.204,611.877L-3.204,612.686L-7.718,612.686C-10.952,612.712 -12.857,614.225 -12.857,616.625C-12.857,618.999 -11.031,620.825 -8.187,620.825C-5.996,620.825 -4.248,620.095 -3.152,618.608L-3.152,620.721ZM-7.796,619.051C-9.726,619.051 -10.952,618.06 -10.952,616.547C-10.952,615.034 -9.752,614.329 -7.457,614.329L-3.178,614.329L-3.178,615.973C-3.7,617.877 -5.474,619.051 -7.796,619.051Z" style="fill:black;fill-rule:nonzero;"/>
                <path d="M5.404,606.972L3.37,606.972L3.37,620.721L5.404,620.721L5.404,613.416C5.639,610.703 7.439,608.903 10.335,608.955L10.335,606.894C8.013,606.92 6.318,608.016 5.404,610.025L5.404,606.972Z" style="fill:black;fill-rule:nonzero;"/>
                <path d="M18.135,613.781L22.831,620.721L25.257,620.721L19.57,612.294L24.709,606.972L22.309,606.972L15.24,614.016L15.24,601.364L13.205,601.364L13.205,620.721L15.24,620.721L15.24,616.781L18.135,613.781Z" style="fill:black;fill-rule:nonzero;"/>
                <path d="M31.518,606.894C29.014,606.894 26.744,607.99 26.744,610.625C26.718,615.503 34.414,613.807 34.336,617.121C34.31,618.477 33.005,619.077 31.388,619.077C29.77,619.077 27.996,618.425 26.822,617.329L26.04,618.868C27.344,620.121 29.353,620.799 31.31,620.799C33.944,620.799 36.344,619.599 36.344,616.886C36.344,611.955 28.675,613.52 28.675,610.468C28.675,609.19 29.849,608.642 31.388,608.642C32.666,608.642 34.049,609.086 35.118,609.764L35.901,608.146C34.753,607.364 33.162,606.894 31.518,606.894Z" style="fill:black;fill-rule:nonzero;"/>
                <path d="M59.067,620.721L61.441,620.721L57.162,614.512C59.797,613.651 61.258,611.616 61.258,608.59C61.258,604.703 58.623,602.459 54.058,602.459L47.119,602.459L47.119,620.721L49.206,620.721L49.206,614.955L54.058,614.955C54.475,614.955 54.893,614.929 55.284,614.903L59.067,620.721ZM49.206,612.947L49.206,604.468L54.058,604.468C57.371,604.468 59.249,605.877 59.249,608.642C59.249,611.486 57.371,612.947 54.058,612.947L49.206,612.947Z" style="fill:black;fill-rule:nonzero;"/>
                <path d="M74.224,620.721L76.206,620.721L76.18,611.642C76.154,608.694 74.276,606.894 70.885,606.894C68.537,606.894 67.05,607.572 65.276,608.746L66.137,610.233C67.571,609.242 68.98,608.668 70.493,608.668C72.919,608.668 74.172,609.868 74.172,611.877L74.172,612.686L69.658,612.686C66.424,612.712 64.519,614.225 64.519,616.625C64.519,618.999 66.345,620.825 69.189,620.825C71.38,620.825 73.128,620.095 74.224,618.608L74.224,620.721ZM69.58,619.051C67.65,619.051 66.424,618.06 66.424,616.547C66.424,615.034 67.624,614.329 69.919,614.329L74.198,614.329L74.198,615.973C73.676,617.877 71.902,619.051 69.58,619.051Z" style="fill:black;fill-rule:nonzero;"/>
                <path d="M93.372,601.364L91.337,601.364L91.337,609.946C90.32,607.99 88.415,606.868 85.963,606.868C82.076,606.868 79.363,609.712 79.363,613.834C79.363,617.929 82.076,620.825 85.989,620.825C88.442,620.825 90.32,619.703 91.337,617.773L91.337,620.721L93.372,620.721L93.372,601.364ZM86.381,618.999C83.459,618.999 81.398,616.86 81.398,613.886C81.398,610.886 83.459,608.72 86.381,608.72C89.276,608.72 91.337,610.886 91.337,613.886C91.337,616.86 89.276,618.999 86.381,618.999Z" style="fill:black;fill-rule:nonzero;"/>
                <path d="M99.45,601.625C98.694,601.625 98.12,602.225 98.12,603.033C98.12,603.842 98.694,604.442 99.45,604.442C100.207,604.442 100.781,603.842 100.781,603.033C100.781,602.225 100.207,601.625 99.45,601.625ZM100.468,620.721L100.468,606.972L98.459,606.972L98.459,620.721L100.468,620.721Z" style="fill:black;fill-rule:nonzero;"/>
                <path d="M111.007,606.92C106.938,606.92 104.042,609.738 104.042,613.834C104.042,617.955 106.938,620.799 111.007,620.799C115.077,620.799 117.973,617.955 117.973,613.834C117.973,609.738 115.077,606.92 111.007,606.92ZM111.007,608.773C113.877,608.773 115.938,610.86 115.938,613.86C115.938,616.886 113.877,618.973 111.007,618.973C108.138,618.973 106.077,616.886 106.077,613.86C106.077,610.86 108.138,608.773 111.007,608.773Z" style="fill:black;fill-rule:nonzero;"/>
                <path d="M121.677,618.216C120.947,618.216 120.399,618.79 120.399,619.573C120.399,620.355 120.947,620.929 121.677,620.929C122.382,620.929 122.929,620.355 122.929,619.573C122.929,618.79 122.382,618.216 121.677,618.216Z" style="fill:black;fill-rule:nonzero;"/>
                <path d="M134.173,602.459L134.173,620.721L136.26,620.721L136.26,614.955L141.034,614.955C145.547,614.955 148.156,612.633 148.156,608.59C148.156,604.703 145.547,602.459 141.034,602.459L134.173,602.459ZM136.26,604.468L140.956,604.468C144.243,604.468 146.147,605.877 146.147,608.642C146.147,611.486 144.243,612.947 140.956,612.947L136.26,612.947L136.26,604.468Z" style="fill:black;fill-rule:nonzero;"/>
                <path d="M156.922,606.92C152.852,606.92 149.956,609.738 149.956,613.834C149.956,617.955 152.852,620.799 156.922,620.799C160.991,620.799 163.887,617.955 163.887,613.834C163.887,609.738 160.991,606.92 156.922,606.92ZM156.922,608.773C159.791,608.773 161.852,610.86 161.852,613.86C161.852,616.886 159.791,618.973 156.922,618.973C154.052,618.973 151.991,616.886 151.991,613.86C151.991,610.86 154.052,608.773 156.922,608.773Z" style="fill:black;fill-rule:nonzero;"/>
                <path d="M171.113,606.894C168.609,606.894 166.339,607.99 166.339,610.625C166.313,615.503 174.009,613.807 173.931,617.121C173.905,618.477 172.6,619.077 170.983,619.077C169.365,619.077 167.591,618.425 166.418,617.329L165.635,618.868C166.939,620.121 168.948,620.799 170.905,620.799C173.539,620.799 175.939,619.599 175.939,616.886C175.939,611.955 168.27,613.52 168.27,610.468C168.27,609.19 169.444,608.642 170.983,608.642C172.261,608.642 173.644,609.086 174.713,609.764L175.496,608.146C174.348,607.364 172.757,606.894 171.113,606.894Z" style="fill:black;fill-rule:nonzero;"/>
                <path d="M185.801,618.138C185.044,618.608 184.314,618.842 183.609,618.842C182.435,618.842 181.783,618.216 181.783,616.547L181.783,609.059L186.14,609.059L186.14,607.39L181.783,607.416L181.783,603.79L179.774,603.79L179.774,607.416L177.792,607.416L177.792,609.059L179.774,609.059L179.774,616.912C179.774,619.625 181.261,620.825 183.27,620.825C184.366,620.799 185.409,620.434 186.375,619.782L185.801,618.138Z" style="fill:black;fill-rule:nonzero;"/>
                <path d="M194.514,613.781L199.21,620.721L201.636,620.721L195.949,612.294L201.088,606.972L198.688,606.972L191.618,614.016L191.618,601.364L189.583,601.364L189.583,620.721L191.618,620.721L191.618,616.781L194.514,613.781Z" style="fill:black;fill-rule:nonzero;"/>
                <path d="M209.384,606.92C205.314,606.92 202.418,609.738 202.418,613.834C202.418,617.955 205.314,620.799 209.384,620.799C213.454,620.799 216.349,617.955 216.349,613.834C216.349,609.738 213.454,606.92 209.384,606.92ZM209.384,608.773C212.254,608.773 214.314,610.86 214.314,613.86C214.314,616.886 212.254,618.973 209.384,618.973C206.514,618.973 204.453,616.886 204.453,613.86C204.453,610.86 206.514,608.773 209.384,608.773Z" style="fill:black;fill-rule:nonzero;"/>
                <path d="M221.958,606.972L219.923,606.972L219.923,620.721L221.958,620.721L221.958,613.416C222.193,610.703 223.993,608.903 226.889,608.955L226.889,606.894C224.567,606.92 222.871,608.016 221.958,610.025L221.958,606.972Z" style="fill:black;fill-rule:nonzero;"/>
                <path d="M236.15,618.138C235.393,618.608 234.663,618.842 233.958,618.842C232.784,618.842 232.132,618.216 232.132,616.547L232.132,609.059L236.489,609.059L236.489,607.39L232.132,607.416L232.132,603.79L230.124,603.79L230.124,607.416L228.141,607.416L228.141,609.059L230.124,609.059L230.124,616.912C230.124,619.625 231.611,620.825 233.619,620.825C234.715,620.799 235.758,620.434 236.724,619.782L236.15,618.138Z" style="fill:black;fill-rule:nonzero;"/>
                <rect x="247.081" y="601.364" width="2.035" height="19.357" style="fill:black;fill-rule:nonzero;"/>
                <path d="M262.733,620.721L264.716,620.721L264.69,611.642C264.664,608.694 262.785,606.894 259.394,606.894C257.046,606.894 255.559,607.572 253.785,608.746L254.646,610.233C256.081,609.242 257.49,608.668 259.003,608.668C261.429,608.668 262.681,609.868 262.681,611.877L262.681,612.686L258.168,612.686C254.933,612.712 253.029,614.225 253.029,616.625C253.029,618.999 254.855,620.825 257.698,620.825C259.89,620.825 261.637,620.095 262.733,618.608L262.733,620.721ZM258.09,619.051C256.159,619.051 254.933,618.06 254.933,616.547C254.933,615.034 256.133,614.329 258.429,614.329L262.707,614.329L262.707,615.973C262.185,617.877 260.411,619.051 258.09,619.051Z" style="fill:black;fill-rule:nonzero;"/>
                <path d="M273.873,620.721L279.273,606.972L277.212,606.972L272.855,618.608L268.472,606.972L266.307,606.972L271.759,620.721L273.873,620.721Z" style="fill:black;fill-rule:nonzero;"/>
                <path d="M286.656,606.92C282.664,606.92 279.847,609.764 279.847,613.86C279.847,617.955 282.638,620.799 286.682,620.799C288.977,620.799 290.908,619.964 292.212,618.503L291.09,617.303C290.021,618.425 288.534,619.025 286.838,619.025C284.177,619.025 282.221,617.329 281.855,614.642L293.073,614.642C293.282,609.973 291.09,606.894 286.656,606.92ZM281.855,612.973C282.168,610.364 284.047,608.668 286.656,608.668C289.343,608.668 291.116,610.338 291.247,612.973L281.855,612.973Z" style="fill:black;fill-rule:nonzero;"/>
                <path d="M303.091,618.138C302.334,618.608 301.604,618.842 300.899,618.842C299.725,618.842 299.073,618.216 299.073,616.547L299.073,609.059L303.43,609.059L303.43,607.39L299.073,607.416L299.073,603.79L297.064,603.79L297.064,607.416L295.082,607.416L295.082,609.059L297.064,609.059L297.064,616.912C297.064,619.625 298.551,620.825 300.56,620.825C301.656,620.799 302.699,620.434 303.665,619.782L303.091,618.138Z" style="fill:black;fill-rule:nonzero;"/>
                <path d="M321.352,606.894C318.952,606.894 317.074,608.016 316.056,609.946L316.056,606.972L314.021,606.972L314.021,625.782L316.056,625.782L316.056,617.773C317.074,619.677 318.952,620.799 321.404,620.799C325.291,620.799 327.952,617.955 327.952,613.886C327.952,609.764 325.239,606.894 321.352,606.894ZM320.987,618.947C318.091,618.947 316.056,616.834 316.056,613.834C316.056,610.86 318.091,608.72 320.987,608.72C323.857,608.72 325.891,610.886 325.891,613.834C325.891,616.808 323.857,618.947 320.987,618.947Z" style="fill:black;fill-rule:nonzero;"/>
                <path d="M336.457,605.981C338.1,605.981 339.483,604.625 339.483,603.007C339.483,601.416 338.1,600.059 336.457,600.059C334.813,600.059 333.457,601.416 333.457,603.007C333.457,604.625 334.813,605.981 336.457,605.981ZM336.457,601.129C337.553,601.129 338.492,601.99 338.492,603.007C338.492,604.051 337.553,604.912 336.457,604.912C335.361,604.912 334.448,604.051 334.448,603.007C334.448,601.99 335.361,601.129 336.457,601.129ZM340.057,620.721L342.04,620.721L342.014,611.642C341.987,608.694 340.109,606.894 336.718,606.894C334.37,606.894 332.883,607.572 331.109,608.746L331.97,610.233C333.405,609.242 334.813,608.668 336.326,608.668C338.753,608.668 340.005,609.868 340.005,611.877L340.005,612.686L335.492,612.686C332.257,612.712 330.352,614.225 330.352,616.625C330.352,618.999 332.178,620.825 335.022,620.825C337.213,620.825 338.961,620.095 340.057,618.608L340.057,620.721ZM335.413,619.051C333.483,619.051 332.257,618.06 332.257,616.547C332.257,615.034 333.457,614.329 335.752,614.329L340.031,614.329L340.031,615.973C339.509,617.877 337.735,619.051 335.413,619.051Z" style="fill:black;fill-rule:nonzero;"/>
                <path d="M352.84,602.459L352.84,620.721L360.431,620.721C366.197,620.721 370.188,616.964 370.188,611.59C370.188,606.19 366.249,602.459 360.588,602.459L352.84,602.459ZM356.962,605.929L360.51,605.929C363.64,605.929 365.988,608.251 365.988,611.616C365.988,614.955 363.745,617.251 360.692,617.251L356.962,617.251L356.962,605.929Z" style="fill:black;fill-rule:nonzero;"/>
                <path d="M380.962,620.721L384.902,620.721L384.876,611.564C384.849,608.407 382.684,606.529 378.928,606.529C376.475,606.529 374.675,607.103 372.588,608.146L373.84,610.912C375.301,610.103 376.762,609.686 378.014,609.686C379.945,609.686 380.936,610.546 380.936,612.033L380.936,612.294L377.075,612.294C373.632,612.32 371.727,613.886 371.727,616.521C371.727,619.077 373.553,620.903 376.554,620.903C378.51,620.903 380.023,620.251 380.962,619.077L380.962,620.721ZM377.675,618.034C376.319,618.034 375.484,617.329 375.484,616.26C375.484,615.138 376.241,614.668 377.78,614.668L380.936,614.668L380.936,615.921C380.702,617.121 379.371,618.034 377.675,618.034Z" style="fill:black;fill-rule:nonzero;"/>
                <path d="M397.241,606.529C395.05,606.555 393.38,607.39 392.389,609.138L392.389,606.686L388.371,606.686L388.371,620.721L392.389,620.721L392.389,613.807C392.389,611.747 393.589,610.233 395.598,610.207C397.319,610.207 398.363,611.303 398.363,613.077L398.363,620.721L402.38,620.721L402.38,611.903C402.38,608.616 400.372,606.529 397.241,606.529Z" style="fill:black;fill-rule:nonzero;"/>
                <path d="M410.598,606.503C407.546,606.503 405.067,607.99 405.067,610.886C405.067,615.816 412.346,614.616 412.346,616.86C412.346,617.616 411.589,617.955 410.572,617.955C409.033,617.955 407.154,617.329 405.693,616.208L404.389,618.921C405.98,620.199 408.198,620.877 410.468,620.877C413.65,620.877 416.181,619.364 416.181,616.494C416.207,611.538 408.798,612.607 408.798,610.494C408.798,609.764 409.476,609.451 410.415,609.451C411.589,609.451 413.155,609.946 414.694,610.807L416.076,608.068C414.511,607.077 412.528,606.503 410.598,606.503Z" style="fill:black;fill-rule:nonzero;"/>
                <path d="M424.816,615.007L428.207,620.721L432.955,620.721L427.581,612.112L432.72,606.712L428.155,606.712L423.016,612.007L423.016,601.364L418.998,601.364L418.998,620.721L423.016,620.721L423.016,616.912L424.816,615.007Z" style="fill:black;fill-rule:nonzero;"/>
                <path d="M447.095,620.721L452.051,620.721L444.721,610.077L451.582,602.459L446.808,602.459L439.216,610.755L439.216,602.459L435.094,602.459L435.094,620.721L439.216,620.721L439.216,616.208L441.851,613.286L447.095,620.721Z" style="fill:black;fill-rule:nonzero;"/>
                <path d="M467.573,606.686L463.582,606.686L463.582,613.625C463.582,615.66 462.408,617.173 460.478,617.199C458.86,617.199 457.843,616.129 457.843,614.355L457.843,606.686L453.825,606.686L453.825,615.503C453.825,618.816 455.782,620.877 458.886,620.877C460.999,620.877 462.617,620.016 463.582,618.242L463.582,620.721L467.573,620.721L467.573,606.686Z" style="fill:black;fill-rule:nonzero;"/>
                <rect x="471.591" y="601.364" width="4.017" height="19.357" style="fill:black;fill-rule:nonzero;"/>
                <path d="M487.478,616.99C486.748,617.329 486.122,617.512 485.6,617.512C484.739,617.538 484.243,617.068 484.243,615.894L484.243,610.103L488.052,610.103L488.052,607.312L484.243,607.312L484.243,603.451L480.252,603.451L480.252,607.312L478.295,607.312L478.295,610.077L480.252,610.077L480.252,616.573C480.252,619.468 482.156,620.903 484.661,620.903C485.965,620.903 487.27,620.538 488.313,619.938L487.478,616.99Z" style="fill:black;fill-rule:nonzero;"/>
                <path d="M504.07,606.686L500.079,606.686L500.079,613.625C500.079,615.66 498.905,617.173 496.974,617.199C495.357,617.199 494.339,616.129 494.339,614.355L494.339,606.686L490.322,606.686L490.322,615.503C490.322,618.816 492.278,620.877 495.383,620.877C497.496,620.877 499.113,620.016 500.079,618.242L500.079,620.721L504.07,620.721L504.07,606.686Z" style="fill:black;fill-rule:nonzero;"/>
                <path d="M511.975,606.686L507.957,606.686L507.957,620.721L511.975,620.721L511.975,613.964C511.975,611.59 513.749,610.051 516.618,610.312L516.618,606.529C514.531,606.555 512.94,607.494 511.975,609.216L511.975,606.686Z" style="fill:black;fill-rule:nonzero;"/>
                <path d="M526.479,620.721L530.419,620.721L530.392,611.564C530.366,608.407 528.201,606.529 524.444,606.529C521.992,606.529 520.192,607.103 518.105,608.146L519.357,610.912C520.818,610.103 522.279,609.686 523.531,609.686C525.462,609.686 526.453,610.546 526.453,612.033L526.453,612.294L522.592,612.294C519.149,612.32 517.244,613.886 517.244,616.521C517.244,619.077 519.07,620.903 522.071,620.903C524.027,620.903 525.54,620.251 526.479,619.077L526.479,620.721ZM523.192,618.034C521.836,618.034 521.001,617.329 521.001,616.26C521.001,615.138 521.757,614.668 523.297,614.668L526.453,614.668L526.453,615.921C526.218,617.121 524.888,618.034 523.192,618.034Z" style="fill:black;fill-rule:nonzero;"/>
                <path d="M537.906,606.686L533.888,606.686L533.888,620.721L537.906,620.721L537.906,613.964C537.906,611.59 539.68,610.051 542.549,610.312L542.549,606.529C540.462,606.555 538.871,607.494 537.906,609.216L537.906,606.686Z" style="fill:black;fill-rule:nonzero;"/>
                <path d="M552.802,620.721L558.098,606.686L554.106,606.686L550.819,616.912L547.506,606.686L543.358,606.712L548.68,620.721L552.802,620.721Z" style="fill:black;fill-rule:nonzero;"/>
                <path d="M560.289,616.808C559.141,616.808 558.28,617.642 558.28,618.868C558.28,620.068 559.141,620.955 560.289,620.955C561.463,620.955 562.298,620.068 562.298,618.868C562.298,617.642 561.463,616.808 560.289,616.808Z" style="fill:black;fill-rule:nonzero;"/>
                <path d="M579.15,601.364L575.159,601.364L575.159,608.746C574.141,607.312 572.602,606.529 570.62,606.529C566.706,606.529 564.098,609.373 564.098,613.651C564.098,617.981 566.733,620.877 570.724,620.877C572.654,620.877 574.168,620.095 575.159,618.66L575.159,620.721L579.15,620.721L579.15,601.364ZM571.663,617.642C569.55,617.642 568.141,616.051 568.115,613.755C568.141,611.486 569.576,609.868 571.663,609.868C573.724,609.868 575.159,611.46 575.159,613.755C575.159,616.051 573.724,617.642 571.663,617.642Z" style="fill:black;fill-rule:nonzero;"/>
                <path d="M589.116,615.007L592.507,620.721L597.255,620.721L591.881,612.112L597.02,606.712L592.455,606.712L587.316,612.007L587.316,601.364L583.298,601.364L583.298,620.721L587.316,620.721L587.316,616.912L589.116,615.007Z" style="fill:black;fill-rule:nonzero;"/>
            </g>
            <g transform="matrix(1.11764,0,0,1.16667,-116.234,-103.346)">
                <g transform="matrix(0.767483,5.19152e-17,3.27719e-17,0.648166,317.224,234.42)">
                    <path d="M874.016,-225L874.016,1415" style="fill:none;stroke-width:3.01px;stroke:black;"/>
                </g>
                <g transform="matrix(1.04832,3.8777e-17,3.8777e-17,0.889996,289.496,-1726.64)">
                    <path d="M1146,2305L1146,2039.58L1315,2039.58L1315,2305L1146,2305ZM1148.02,2302.57L1312.98,2302.57L1312.98,2042.01L1148.02,2042.01L1148.02,2302.57Z" style="fill:black;"/>
                </g>
                <g transform="matrix(1,0,0,1,0,35.6929)">
                    <g transform="matrix(1.52929e-16,1,-0.331637,1.67183e-16,1590.74,-283.465)">
                        <path d="M874.016,-225L874.016,1415" style="fill:none;stroke-width:2.89px;stroke:black;"/>
                    </g>
                    <g transform="matrix(1.52929e-16,1,-0.331637,1.67183e-16,1590.74,-165.354)">
                        <path d="M874.016,-225L874.016,1415" style="fill:none;stroke-width:2.89px;stroke:black;"/>
                    </g>
                    <g transform="matrix(1.52929e-16,1,-0.331637,1.67183e-16,1590.74,-47.2441)">
                        <path d="M874.016,-225L874.016,1415" style="fill:none;stroke-width:2.89px;stroke:black;"/>
                    </g>
                    <g transform="matrix(1.52929e-16,1,-0.331637,1.67183e-16,1590.74,70.8661)">
                        <path d="M874.016,-225L874.016,1415" style="fill:none;stroke-width:2.89px;stroke:black;"/>
                    </g>
                </g>
            </g>
        </g>
    </g>
</svg>
